<svg width="25" height="24" viewBox="0 0 25 24" fill="none" xmlns="http://www.w3.org/2000/svg">
<path d="M7.12 10.7899C8.56 13.6199 10.88 15.9299 13.71 17.3799L15.91 15.1799C16.18 14.9099 16.58 14.8199 16.93 14.9399C18.05 15.3099 19.26 15.5099 20.5 15.5099C21.05 15.5099 21.5 15.9599 21.5 16.5099V19.9999C21.5 20.5499 21.05 20.9999 20.5 20.9999C11.11 20.9999 3.5 13.3899 3.5 3.99988C3.5 3.44988 3.95 2.99988 4.5 2.99988H8C8.55 2.99988 9 3.44988 9 3.99988C9 5.24988 9.2 6.44988 9.57 7.56988C9.68 7.91988 9.6 8.30988 9.32 8.58988L7.12 10.7899Z" fill="#1F3F68"/>
</svg>
