<svg width="300" height="150" viewBox="0 0 300 150" fill="none" xmlns="http://www.w3.org/2000/svg">
<path d="M216.69 78.0093C216.683 88.9142 213.52 99.6069 207.545 108.916C201.57 118.225 193.015 125.791 182.818 130.784C182.359 131.013 181.896 131.233 181.431 131.443L181.335 131.489L181.003 131.64C180.728 131.768 180.459 131.887 180.179 132.006C178.437 132.766 176.649 133.448 174.816 134.052C173.777 134.397 172.726 134.716 171.663 135.008L170.392 135.342C156.252 138.922 141.238 137.68 127.961 131.832C127.417 131.59 126.873 131.343 126.338 131.086L125.376 130.629C115.846 125.882 107.762 118.882 101.902 110.305C101.286 109.411 100.699 108.496 100.14 107.559C99.6426 106.745 99.1612 105.919 98.6959 105.083C94.173 96.707 91.821 87.4247 91.8358 78.0093C91.8358 76.8988 91.8679 75.7944 91.932 74.696C92.8346 59.2663 100.034 44.78 111.998 34.3181C123.963 23.8563 139.749 18.2444 155.999 18.676C172.249 19.1076 187.68 25.5487 199.012 36.6293C210.343 47.7099 216.68 62.5557 216.675 78.0093H216.69Z" fill="url(#paint0_linear_180337_25)"/>
<path d="M142.004 75.8996C142.004 75.8996 128.043 69.6071 126.829 60.9485C125.616 52.29 126.468 44.0158 133.425 41.7002C133.425 41.7002 137.825 28.3646 153.423 33.7235C169.02 39.0825 166.56 55.1731 175.086 57.0998C183.612 59.0264 199.532 50.9125 202.57 60.8112C205.607 70.71 195.618 70.1059 188.98 78.5082C182.341 86.9104 192.595 91.3221 190.717 97.1067C188.84 102.891 181.749 106.868 181.749 106.868L142.004 75.8996Z" fill="url(#paint1_linear_180337_25)"/>
<path d="M122.887 94.8917L126.829 105.083H127.258L133.425 78.5082C129.53 81.7528 122.887 94.8917 122.887 94.8917Z" fill="url(#paint2_linear_180337_25)"/>
<path d="M115.964 108.95L113.466 110.145C110.365 111.911 105.734 111.408 105.734 111.408C108.237 114.085 122.333 117.115 126.295 117.037L127.027 107.555H118.246L115.964 108.95Z" fill="url(#paint3_linear_180337_25)"/>
<path d="M181.431 131.43L181.335 131.476L181.002 131.627C180.728 131.755 180.458 131.874 180.179 131.993C178.437 132.752 176.649 133.434 174.816 134.038C173.776 134.383 172.725 134.702 171.663 134.995L170.392 135.329C156.251 138.909 141.238 137.667 127.961 131.819C127.417 131.576 126.873 131.329 126.338 131.073L125.375 130.615C125.51 126.689 125.717 121.989 126.021 117.032C126.213 113.934 126.449 110.735 126.728 107.559C126.8 106.731 126.877 105.907 126.955 105.083C128.091 93.377 129.91 82.5217 132.828 79.0711L132.871 79.0254C133.241 78.5408 133.764 78.1803 134.363 77.9957C138.576 77.0438 141.546 76.7234 142.013 75.8997C142.48 75.0759 142.013 73.4559 142.013 73.4559L142.851 73.3461C144.069 73.1722 146.432 72.806 148.671 72.2569C148.685 72.2611 148.7 72.2611 148.714 72.2569C150.693 71.7672 152.566 71.1357 153.48 70.376L155.358 75.1217C155.358 75.1217 169.477 73.4239 174.99 78.5265C175.024 78.5503 175.054 78.578 175.081 78.6089C175.139 78.6589 175.194 78.7124 175.245 78.7691C175.573 79.0988 175.865 79.4591 176.116 79.8446C177.912 82.5904 179.183 93.6104 180.064 105.564C180.266 108.31 180.449 111.147 180.608 113.925C180.974 120.341 181.248 126.556 181.431 131.43Z" fill="url(#paint4_linear_180337_25)"/>
<path opacity="0.15" d="M181.335 131.489L181.003 131.64C180.728 131.768 180.459 131.887 180.179 132.006C178.437 132.766 176.649 133.448 174.817 134.052C173.777 134.397 172.726 134.716 171.663 135.008C165.159 128.423 162.579 119.874 162.579 119.874L180.598 113.925L181.335 131.489Z" fill="black"/>
<path d="M174.985 78.5082C181.508 84.5948 182.928 97.3721 181.725 106.882C180.521 116.392 178.287 125.297 173.647 125.023C169.006 124.748 152.946 114.158 146.74 108.383L150.366 101.77L163.479 106.964V93.1206L174.985 78.5082Z" fill="url(#paint5_linear_180337_25)"/>
<path d="M174.985 78.5082C181.508 84.5948 182.928 97.3721 181.725 106.882C180.521 116.392 178.287 125.297 173.647 125.023C169.006 124.748 152.946 114.158 146.74 108.383L150.366 101.77L163.479 106.964V93.1206L174.985 78.5082Z" fill="url(#paint6_linear_180337_25)"/>
<g filter="url(#filter0_d_180337_25)">
<path d="M141.248 105.083H81.0762V107.559H141.248V105.083Z" fill="url(#paint7_linear_180337_25)"/>
<path d="M115.069 74.696H69.3105L81.0762 105.083H126.829L115.069 74.696Z" fill="url(#paint8_linear_180337_25)"/>
</g>
<path d="M94.8157 107.559C94.8157 107.559 102.711 111.316 107.727 111.408C112.743 111.499 118.251 107.559 118.251 107.559H94.8157Z" fill="url(#paint9_linear_180337_25)"/>
<path d="M150.366 101.77C150.366 101.77 143.424 98.4384 140.434 98.0723C137.445 97.7062 128.163 105.083 128.163 105.083H141.257L146.755 108.383L150.366 101.77Z" fill="url(#paint10_linear_180337_25)"/>
<path d="M152.893 62.8706C152.928 65.3766 153.12 67.8783 153.471 70.3622C150.366 72.0234 146.731 72.9158 142.841 73.3506L142.615 70.3622L142.48 68.5316V68.4721C141.73 68.4561 140.991 68.3006 140.304 68.0145C135.606 66.0878 134.595 56.6696 134.595 56.6696C136.477 56.5964 138.927 53.37 138.927 53.37C140.299 55.3653 146.664 59.2186 150.356 58.1844C154.049 57.1501 153.76 54.6743 153.76 54.6743C154.427 54.942 155.005 55.3789 155.43 55.9374C155.854 56.4958 156.109 57.1543 156.167 57.8411C156.364 60.2575 152.893 62.8706 152.893 62.8706Z" fill="url(#paint11_linear_180337_25)"/>
<path opacity="0.15" d="M149.74 65.5295C148.868 66.9299 144.926 69.1586 142.62 70.3714L142.485 68.5408C142.629 68.5408 142.769 68.495 142.904 68.4676C144.786 68.1508 146.593 67.5137 148.238 66.5867C148.257 66.5794 148.275 66.5685 148.291 66.5547C148.785 66.2769 149.248 65.9518 149.672 65.5845L149.74 65.5295Z" fill="black"/>
<path opacity="0.15" d="M158.068 104.827L168.284 108.799L163.47 105.5V93.1436C163.47 93.1436 161.963 103.88 158.068 104.827Z" fill="black"/>
<defs>
<filter id="filter0_d_180337_25" x="54.3105" y="59.696" width="111.937" height="72.8632" filterUnits="userSpaceOnUse" color-interpolation-filters="sRGB">
<feFlood flood-opacity="0" result="BackgroundImageFix"/>
<feColorMatrix in="SourceAlpha" type="matrix" values="0 0 0 0 0 0 0 0 0 0 0 0 0 0 0 0 0 0 127 0" result="hardAlpha"/>
<feOffset dx="5" dy="5"/>
<feGaussianBlur stdDeviation="10"/>
<feColorMatrix type="matrix" values="0 0 0 0 0 0 0 0 0 0 0 0 0 0 0 0 0 0 0.2 0"/>
<feBlend mode="normal" in2="BackgroundImageFix" result="effect1_dropShadow_180337_25"/>
<feBlend mode="normal" in="SourceGraphic" in2="effect1_dropShadow_180337_25" result="shape"/>
</filter>
<linearGradient id="paint0_linear_180337_25" x1="154.519" y1="25.098" x2="152.589" y2="142.083" gradientUnits="userSpaceOnUse">
<stop stop-color="white" stop-opacity="0"/>
<stop offset="1" stop-color="#64B5F6" stop-opacity="0.6"/>
</linearGradient>
<linearGradient id="paint1_linear_180337_25" x1="126.372" y1="69.6574" x2="203.138" y2="69.6574" gradientUnits="userSpaceOnUse">
<stop stop-color="#EF9A9A"/>
<stop offset="1" stop-color="#D81B60"/>
</linearGradient>
<linearGradient id="paint2_linear_180337_25" x1="127.585" y1="92.8506" x2="125.491" y2="117.897" gradientUnits="userSpaceOnUse">
<stop stop-color="#7E57C2"/>
<stop offset="1" stop-color="#4527A0"/>
</linearGradient>
<linearGradient id="paint3_linear_180337_25" x1="6491.65" y1="2307.41" x2="6471.21" y2="2829.29" gradientUnits="userSpaceOnUse">
<stop stop-color="#7E57C2"/>
<stop offset="1" stop-color="#4527A0"/>
</linearGradient>
<linearGradient id="paint4_linear_180337_25" x1="19272.2" y1="13477.9" x2="22924.2" y2="20522.7" gradientUnits="userSpaceOnUse">
<stop stop-color="#7E57C2"/>
<stop offset="1" stop-color="#4527A0"/>
</linearGradient>
<linearGradient id="paint5_linear_180337_25" x1="13244" y1="8869.07" x2="16495.5" y2="14565.4" gradientUnits="userSpaceOnUse">
<stop stop-color="#7E57C2"/>
<stop offset="1" stop-color="#4527A0"/>
</linearGradient>
<linearGradient id="paint6_linear_180337_25" x1="167.335" y1="83.6704" x2="162.36" y2="126.356" gradientUnits="userSpaceOnUse">
<stop offset="0.14" stop-color="#7E57C2" stop-opacity="0"/>
<stop offset="0.26" stop-color="#724DBB" stop-opacity="0.21"/>
<stop offset="0.48" stop-color="#5F3DAF" stop-opacity="0.55"/>
<stop offset="0.66" stop-color="#5131A7" stop-opacity="0.79"/>
<stop offset="0.81" stop-color="#482AA2" stop-opacity="0.94"/>
<stop offset="0.91" stop-color="#4527A0"/>
</linearGradient>
<linearGradient id="paint7_linear_180337_25" x1="81.0762" y1="106.319" x2="141.248" y2="106.319" gradientUnits="userSpaceOnUse">
<stop stop-color="#D2D4D5"/>
<stop offset="1" stop-color="#AAACAE"/>
</linearGradient>
<linearGradient id="paint8_linear_180337_25" x1="563.398" y1="3821.45" x2="3806.96" y2="7700.78" gradientUnits="userSpaceOnUse">
<stop stop-color="#D2D4D5"/>
<stop offset="1" stop-color="#AAACAE"/>
</linearGradient>
<linearGradient id="paint9_linear_180337_25" x1="96.308" y1="103.427" x2="115.232" y2="111.96" gradientUnits="userSpaceOnUse">
<stop stop-color="#FFF8E1"/>
<stop offset="1" stop-color="#FFCC80"/>
</linearGradient>
<linearGradient id="paint10_linear_180337_25" x1="7495" y1="2682.73" x2="7962.26" y2="3217.04" gradientUnits="userSpaceOnUse">
<stop stop-color="#FFF8E1"/>
<stop offset="1" stop-color="#FFCC80"/>
</linearGradient>
<linearGradient id="paint11_linear_180337_25" x1="7655.04" y1="2941.36" x2="8057.31" y2="3735.73" gradientUnits="userSpaceOnUse">
<stop stop-color="#FFF8E1"/>
<stop offset="1" stop-color="#FFCC80"/>
</linearGradient>
</defs>
</svg>
