<svg width="301" height="181" viewBox="0 0 301 181" fill="none" xmlns="http://www.w3.org/2000/svg">
<ellipse opacity="0.2" cx="150.5" cy="171.278" rx="150" ry="9.68611" fill="#98C3E8"/>
<path d="M250.635 142.957C247.646 142.213 252.504 151.327 255.306 155.977C257.434 159.697 261.845 159.232 261.845 156.907C261.845 154.582 254.372 143.887 250.635 142.957Z" fill="url(#paint0_linear_180358_86)"/>
<path d="M272.619 143.866C272.489 140.801 265.085 148.02 261.399 152.013C258.417 155.098 260.115 159.178 262.355 158.52C264.595 157.861 272.781 147.697 272.619 143.866Z" fill="url(#paint1_linear_180358_86)"/>
<path d="M261.823 139.833C259.882 137.451 258.268 147.642 257.704 153.036C257.161 157.282 260.969 159.548 262.372 157.689C263.774 155.83 264.25 142.81 261.823 139.833Z" fill="url(#paint2_linear_180358_86)"/>
<path d="M52.1183 168.83L53.5196 163.715H49.3158L42.7764 172.085L52.1183 168.83Z" fill="#6FCF97"/>
<path d="M24.0925 172.085L27.8293 168.83L24.5596 166.505L14.2834 172.085H24.0925Z" fill="#6FCF97"/>
<path d="M111.907 66.5299L109.105 73.04L107.703 74.9L103.032 76.295L102.565 71.18L105.835 63.2749L111.907 66.5299Z" fill="#F2994A"/>
<path d="M125.92 69.3196L127.321 71.1796L131.058 69.3196L129.19 66.0646C127.788 63.7396 125.125 60.6234 123.584 59.0896C122.183 57.6945 122.339 58.6245 122.183 59.5545L124.986 63.2746C124.986 63.2746 123.837 64.2622 123.584 65.1346C123.277 66.1959 123.438 67.0039 124.051 67.9246C124.555 68.6814 125.92 69.3196 125.92 69.3196Z" fill="url(#paint3_linear_180358_86)"/>
<path d="M106.301 80.48L108.637 83.735L112.841 80.48C111.595 79.085 109.104 76.202 109.104 75.83V73.0399C108.17 73.3499 106.82 74.358 105.367 73.97C103.872 73.5707 103.187 72.1099 102.564 71.1799C102.564 71.1799 101.622 71.6407 101.163 72.1099C99.6366 73.6718 100.07 75.802 101.163 77.69C102.304 79.6613 106.301 80.48 106.301 80.48Z" fill="url(#paint4_linear_180358_86)"/>
<path d="M131.058 69.3198L148.345 85.992L138.999 88.385L127.321 71.1798L131.058 69.3198Z" fill="url(#paint5_linear_180358_86)"/>
<path d="M159.552 77.2247C158.057 73.8767 163.6 69.0096 166.558 66.9946L179.17 81.8747L173.097 89.7798L168.426 100.01L160.953 89.7798L163.755 83.7347C162.977 82.9597 161.046 80.5727 159.552 77.2247Z" fill="url(#paint6_linear_180358_86)"/>
<path d="M27.8295 168.366L24.5598 166.506L71.7367 120.47H108.637L116.578 135.815L67.9999 144.65L27.8295 168.366Z" fill="url(#paint7_linear_180358_86)"/>
<path opacity="0.2" d="M114.88 135.716L67.9294 144.666L59.9377 149.141L73.9231 121.296L114.88 135.716Z" fill="black"/>
<path d="M128.255 111.17C125.266 113.03 119.692 114.425 117.512 114.89L126.854 127.91L155.347 120.005L167.024 92.5698L162.353 86.5248C160.329 86.2148 155.066 85.0368 152.077 84.6648C148.34 84.1998 130.123 90.2448 126.854 90.2448C124.238 90.2448 116.422 83.7348 112.841 80.4797L108.637 83.7348C111.751 87.9198 119.007 96.6619 123.117 98.1499C128.255 100.01 142.268 96.2899 141.334 98.1499C140.4 100.01 131.992 108.845 128.255 111.17Z" fill="url(#paint8_linear_180358_86)"/>
<path opacity="0.2" d="M146.847 99.9147C145.249 103.893 133.527 109.196 127.867 111.351C133.86 107.373 138.356 101.904 141.353 98.423C144.016 97.4285 148.445 95.9368 146.847 99.9147Z" fill="black"/>
<path d="M53.52 163.715H49.3162C53.6757 146.2 63.5159 111.17 68.0001 111.17C72.4842 111.17 102.877 113.65 117.512 114.89L125.453 125.12L104.391 134.721L75.4736 128.375L53.52 163.715Z" fill="url(#paint9_linear_180358_86)"/>
<path d="M114.71 169.295C87.6186 170.69 84.349 165.11 82.0135 160.925C79.2109 152.555 82.0135 146.975 96.0264 138.605C110.039 130.235 127.322 121.865 141.335 113.96C155.348 106.055 176.834 68.3897 198.788 64.6696C220.741 60.9496 234.287 88.8498 239.425 118.145C244.563 147.44 228.682 164.18 223.077 164.18C217.472 164.18 141.802 167.9 114.71 169.295Z" fill="url(#paint10_linear_180358_86)"/>
<path d="M166.558 77.2248C163.568 76.1088 165.312 70.2497 166.558 67.4597C168.095 62.3447 178.235 53.5096 185.241 52.1146C192.248 50.7196 201.59 58.6246 201.59 63.7397C201.59 68.8547 201.59 71.6447 208.129 75.3648C214.668 79.0848 216.07 88.8499 209.063 93.0349C202.057 97.2199 202.991 93.9649 192.715 97.6849C182.439 101.405 176.833 118.61 172.63 111.17C168.426 103.73 175.432 104.195 171.228 99.0799C167.024 93.9649 177.301 86.0598 176.833 82.3398C176.366 78.6198 170.294 78.6198 166.558 77.2248Z" fill="url(#paint11_linear_180358_86)"/>
<rect x="33.7437" y="58.2739" width="36.4336" height="26.9702" fill="#5A98D0"/>
<path d="M48.0294 71.0191C49.1969 73.3034 51.078 75.168 53.3726 76.3384L55.1564 74.5626C55.3753 74.3447 55.6996 74.272 55.9834 74.3689C56.8915 74.6675 57.8726 74.829 58.878 74.829C59.324 74.829 59.6888 75.1922 59.6888 75.6361V78.4532C59.6888 78.8971 59.324 79.2604 58.878 79.2604C51.2645 79.2604 45.0942 73.1178 45.0942 65.5384C45.0942 65.0944 45.4591 64.7312 45.905 64.7312H48.7429C49.1888 64.7312 49.5537 65.0944 49.5537 65.5384C49.5537 66.5473 49.7159 67.516 50.0159 68.42C50.105 68.7025 50.0402 69.0173 49.8132 69.2433L48.0294 71.0191Z" fill="white"/>
<rect x="52.3921" y="0.964355" width="36.4336" height="26.9702" fill="#5A98D0"/>
<path d="M77.5265 8.229H64.5535C63.6616 8.229 62.94 8.95546 62.94 9.84335L62.9319 19.5295C62.9319 20.4174 63.6616 21.1438 64.5535 21.1438H77.5265C78.4184 21.1438 79.1481 20.4174 79.1481 19.5295V9.84335C79.1481 8.95546 78.4184 8.229 77.5265 8.229ZM77.5265 11.4577L71.04 15.4936L64.5535 11.4577V9.84335L71.04 13.8792L77.5265 9.84335V11.4577Z" fill="white"/>
<rect x="124.554" y="0.964355" width="36.4336" height="26.9702" fill="#5A98D0"/>
<path d="M142.384 6.6145C137.909 6.6145 134.284 10.2306 134.284 14.6863C134.284 19.1419 137.909 22.758 142.384 22.758C146.868 22.758 150.5 19.1419 150.5 14.6863C150.5 10.2306 146.868 6.6145 142.384 6.6145ZM148.003 11.4576H145.611C145.352 10.4486 144.979 9.47998 144.492 8.58401C145.984 9.09253 147.225 10.1257 148.003 11.4576ZM142.392 8.26114C143.065 9.22975 143.592 10.3033 143.941 11.4576H140.844C141.192 10.3033 141.719 9.22975 142.392 8.26114ZM136.117 16.3006C135.987 15.784 135.906 15.2432 135.906 14.6863C135.906 14.1293 135.987 13.5885 136.117 13.0719H138.857C138.792 13.6046 138.744 14.1374 138.744 14.6863C138.744 15.2351 138.792 15.7679 138.857 16.3006H136.117ZM136.781 17.915H139.173C139.433 18.9239 139.806 19.8925 140.292 20.7885C138.8 20.28 137.56 19.2549 136.781 17.915V17.915ZM139.173 11.4576H136.781C137.56 10.1176 138.8 9.09253 140.292 8.58401C139.806 9.47998 139.433 10.4486 139.173 11.4576V11.4576ZM142.392 21.1114C141.719 20.1428 141.192 19.0692 140.844 17.915H143.941C143.592 19.0692 143.065 20.1428 142.392 21.1114ZM144.29 16.3006H140.495C140.422 15.7679 140.365 15.2351 140.365 14.6863C140.365 14.1374 140.422 13.5966 140.495 13.0719H144.29C144.363 13.5966 144.419 14.1374 144.419 14.6863C144.419 15.2351 144.363 15.7679 144.29 16.3006ZM144.492 20.7885C144.979 19.8925 145.352 18.9239 145.611 17.915H148.003C147.225 19.2468 145.984 20.28 144.492 20.7885V20.7885ZM145.927 16.3006C145.992 15.7679 146.041 15.2351 146.041 14.6863C146.041 14.1374 145.992 13.6046 145.927 13.0719H148.668C148.798 13.5885 148.879 14.1293 148.879 14.6863C148.879 15.2432 148.798 15.784 148.668 16.3006H145.927Z" fill="white"/>
<path d="M249.7 152.257C251.101 149.932 270.525 150.397 271.186 152.257C271.847 154.117 270.252 164.348 266.982 165.277C263.713 166.207 257.174 166.672 254.371 165.277C251.568 163.883 248.299 154.582 249.7 152.257Z" fill="#F2994A"/>
<defs>
<linearGradient id="paint0_linear_180358_86" x1="255.771" y1="142.914" x2="255.771" y2="158.712" gradientUnits="userSpaceOnUse">
<stop stop-color="#6CEDA0"/>
<stop offset="1" stop-color="#199D56"/>
</linearGradient>
<linearGradient id="paint1_linear_180358_86" x1="274.115" y1="148.757" x2="258.906" y2="153.269" gradientUnits="userSpaceOnUse">
<stop stop-color="#6CEDA0"/>
<stop offset="1" stop-color="#199D56"/>
</linearGradient>
<linearGradient id="paint2_linear_180358_86" x1="265.956" y1="142.869" x2="256.48" y2="155.542" gradientUnits="userSpaceOnUse">
<stop stop-color="#6CEDA0"/>
<stop offset="1" stop-color="#199D56"/>
</linearGradient>
<linearGradient id="paint3_linear_180358_86" x1="132.383" y1="61.6636" x2="121.715" y2="66.2178" gradientUnits="userSpaceOnUse">
<stop stop-color="#FFF8E1"/>
<stop offset="1" stop-color="#FFCC80"/>
</linearGradient>
<linearGradient id="paint4_linear_180358_86" x1="114.731" y1="74.4021" x2="101.744" y2="82.4707" gradientUnits="userSpaceOnUse">
<stop stop-color="#FFF8E1"/>
<stop offset="1" stop-color="#FFCC80"/>
</linearGradient>
<linearGradient id="paint5_linear_180358_86" x1="139.351" y1="68.0408" x2="138.218" y2="86.7989" gradientUnits="userSpaceOnUse">
<stop stop-color="#98D0FC"/>
<stop offset="1" stop-color="#3481D7"/>
</linearGradient>
<linearGradient id="paint6_linear_180358_86" x1="164.328" y1="72.0692" x2="165.128" y2="84.8257" gradientUnits="userSpaceOnUse">
<stop stop-color="#FFF8E1"/>
<stop offset="1" stop-color="#FFCC80"/>
</linearGradient>
<linearGradient id="paint7_linear_180358_86" x1="42.9556" y1="138.202" x2="78.3755" y2="152.233" gradientUnits="userSpaceOnUse">
<stop offset="0.0642604" stop-color="#EB5757"/>
<stop offset="1" stop-color="#872727"/>
</linearGradient>
<linearGradient id="paint8_linear_180358_86" x1="121.374" y1="80.5222" x2="147.059" y2="110.844" gradientUnits="userSpaceOnUse">
<stop stop-color="#98D0FC"/>
<stop offset="1" stop-color="#3481D7"/>
</linearGradient>
<linearGradient id="paint9_linear_180358_86" x1="70.4269" y1="108.368" x2="101.241" y2="142.815" gradientUnits="userSpaceOnUse">
<stop stop-color="#EB5757"/>
<stop offset="1" stop-color="#872727"/>
</linearGradient>
<linearGradient id="paint10_linear_180358_86" x1="240.249" y1="117.318" x2="166.697" y2="114.428" gradientUnits="userSpaceOnUse">
<stop stop-color="#FCF898"/>
<stop offset="1" stop-color="#D7BD34"/>
</linearGradient>
<linearGradient id="paint11_linear_180358_86" x1="189.31" y1="51.9521" x2="189.31" y2="113.016" gradientUnits="userSpaceOnUse">
<stop stop-color="#AF6CED"/>
<stop offset="1" stop-color="#5E199D"/>
</linearGradient>
</defs>
</svg>
