<svg width="300" height="150" viewBox="0 0 300 150" fill="none" xmlns="http://www.w3.org/2000/svg">
<path d="M221.469 78C221.462 89.0926 218.327 99.9696 212.407 109.439C206.487 118.908 198.01 126.604 187.905 131.684C187.313 131.987 186.712 132.275 186.106 132.555C185.834 132.685 185.567 132.806 185.29 132.927C183.564 133.7 181.792 134.393 179.976 135.008C178.545 135.497 177.076 135.939 175.592 136.321C161.58 139.962 146.703 138.699 133.547 132.75C133.007 132.503 132.468 132.252 131.939 131.991C122.088 127.183 113.732 119.895 107.733 110.88C101.735 101.865 98.3113 91.4511 97.817 80.7134C97.3227 69.9756 99.7753 59.3038 104.922 49.8006C110.068 40.2974 117.721 32.3074 127.09 26.6563C136.459 21.0052 147.205 17.8978 158.216 17.6554C169.228 17.4129 180.106 20.0441 189.727 25.2771C199.348 30.51 207.362 38.155 212.943 47.422C218.523 56.6891 221.466 67.2421 221.469 77.9907V78Z" fill="url(#paint0_linear_180337_23)"/>
<path d="M135.364 115.26L128.533 104.847C128.533 104.847 147.457 83.4978 149.35 82.2362C149.35 82.2362 139.805 97.8638 135.364 115.26Z" fill="url(#paint1_linear_180337_23)"/>
<path d="M128.533 104.847L115.653 116.019L91.9586 104.847L73.8313 105.815C73.8313 105.815 85.1227 109.539 88.2997 109.386L91.4816 109.232C91.4816 109.232 110.94 127.541 115.414 128.938C119.889 130.334 134.586 119.385 134.586 119.385L135.44 115.293L128.533 104.847Z" fill="url(#paint2_linear_180337_23)"/>
<path d="M164.072 79.7085C162.282 80.5541 160.357 81.0957 158.381 81.3099C156.096 81.645 152.623 80.4067 152.623 80.4067C155.247 78.391 154.636 73.638 154.636 73.638L154.693 73.6101C157.494 73.4006 159.836 71.8504 161.472 70.3514C160.88 74.4201 164.072 79.7085 164.072 79.7085Z" fill="url(#paint3_linear_180337_23)"/>
<path d="M164.072 64.5697V67.3628C163.326 68.4479 162.456 69.446 161.477 70.3375V70.3375C159.841 71.8411 157.498 73.3913 154.698 73.5962C153.426 73.691 152.149 73.5081 150.958 73.0608C143.326 70.2677 148.692 55.4873 148.692 55.4873C151.116 49.4727 162.087 52.3823 162.087 52.3823C163.557 54.0907 163.838 58.8623 163.781 59.3279C163.536 59.9819 163.216 60.6066 162.827 61.19C162.827 61.19 164.911 59.272 165.627 60.5475C166.343 61.8231 164.072 64.5697 164.072 64.5697Z" fill="url(#paint4_linear_180337_23)"/>
<path d="M164.072 67.3721V64.5789C164.072 64.5789 166.338 61.8556 165.622 60.5708C164.907 59.2859 162.822 61.2132 162.822 61.2132C163.212 60.6299 163.532 60.0052 163.776 59.3511C163.833 58.8856 163.595 54.384 162.083 52.4055C162.083 52.4055 151.111 49.496 148.688 55.5106C148.688 55.5106 145.549 54.7331 142.844 51.0881C138.422 45.1247 143.703 44.3939 148.936 45.5437C155.285 46.9403 161.649 42.3595 168.923 47.0148C176.198 51.67 169.677 62.2513 164.072 67.3721Z" fill="#262F72"/>
<g filter="url(#filter0_d_180337_23)">
<path d="M114.136 41.382H52.2408C50.7444 41.382 49.5312 42.5658 49.5312 44.0261V99.7213C49.5312 101.182 50.7444 102.365 52.2408 102.365H114.136C115.632 102.365 116.846 101.182 116.846 99.7213V44.0261C116.846 42.5658 115.632 41.382 114.136 41.382Z" fill="white"/>
</g>
<path d="M59.8399 52.4334C59.6681 52.6232 59.4474 52.7646 59.2007 52.8431C58.9063 52.9428 58.5964 52.9916 58.2848 52.9874C57.9614 52.9946 57.642 52.9175 57.3593 52.7639C57.0916 52.6122 56.8771 52.385 56.744 52.1122C56.5924 51.7979 56.5157 51.4541 56.5198 51.1067V50.8367C56.5111 50.4833 56.5811 50.1323 56.7249 49.8079C56.8485 49.5327 57.0548 49.3006 57.3164 49.1422C57.633 48.9749 57.9909 48.8963 58.3504 48.9152C58.7099 48.9341 59.057 49.0497 59.3533 49.2492C59.6379 49.5032 59.8091 49.8558 59.8304 50.2315H59.0147C58.9962 50.0417 58.9081 49.8648 58.7666 49.7334C58.6166 49.6212 58.4305 49.5651 58.2418 49.5751C58.1147 49.5682 57.9878 49.5932 57.8734 49.6478C57.759 49.7024 57.6608 49.7848 57.5883 49.887C57.4209 50.1689 57.3429 50.4929 57.3641 50.8181V51.0694C57.3434 51.397 57.4285 51.7226 57.6074 52.0005C57.6899 52.1067 57.7979 52.1915 57.9218 52.2475C58.0457 52.3035 58.1818 52.329 58.3182 52.3217C58.5597 52.3423 58.8002 52.2724 58.9908 52.1262V51.4419H58.2276V50.8413H59.8304L59.8399 52.4334Z" fill="#64B5F6"/>
<path d="M108.889 48.9094H65.0301C64.4953 48.9094 64.0618 49.3325 64.0618 49.8544V53.29C64.0618 53.8119 64.4953 54.235 65.0301 54.235H108.889C109.423 54.235 109.857 53.8119 109.857 53.29V49.8544C109.857 49.3325 109.423 48.9094 108.889 48.9094Z" fill="#E7EEF2"/>
<path d="M109.857 57.2423H64.0618V58.1733H109.857V57.2423Z" fill="#BBDEFB"/>
<path d="M109.857 59.3372H64.0618V60.2682H109.857V59.3372Z" fill="#E7E8E9"/>
<path d="M109.857 61.432H64.0618V62.3631H109.857V61.432Z" fill="#E7E8E9"/>
<path d="M109.857 63.5269H64.0618V64.4579H109.857V63.5269Z" fill="#E7E8E9"/>
<path d="M109.857 67.4465H64.0618V68.3776H109.857V67.4465Z" fill="#BBDEFB"/>
<path d="M109.857 69.5414H64.0618V70.4724H109.857V69.5414Z" fill="#E7E8E9"/>
<path d="M109.857 71.6364H64.0618V72.5674H109.857V71.6364Z" fill="#E7E8E9"/>
<path d="M109.857 73.7312H64.0618V74.6622H109.857V73.7312Z" fill="#E7E8E9"/>
<path d="M109.857 77.5344H64.0618V78.4655H109.857V77.5344Z" fill="#BBDEFB"/>
<path d="M109.857 79.6293H64.0618V80.5603H109.857V79.6293Z" fill="#E7E8E9"/>
<path d="M109.857 81.7242H64.0618V82.6553H109.857V81.7242Z" fill="#E7E8E9"/>
<path d="M109.857 83.819H64.0618V84.75H109.857V83.819Z" fill="#E7E8E9"/>
<path d="M109.857 87.6223H64.0618V88.5534H109.857V87.6223Z" fill="#BBDEFB"/>
<path d="M109.857 89.7172H64.0618V90.6482H109.857V89.7172Z" fill="#E7E8E9"/>
<path d="M109.857 91.812H64.0618V92.7431H109.857V91.812Z" fill="#E7E8E9"/>
<path d="M109.857 93.9069H64.0618V94.8379H109.857V93.9069Z" fill="#E7E8E9"/>
<path d="M180.573 102.198C183.835 111.676 186.254 122.648 187.905 131.684C187.313 131.987 186.712 132.275 186.106 132.555C185.834 132.685 185.567 132.806 185.29 132.927C183.564 133.7 181.792 134.394 179.976 135.008C178.545 135.497 177.076 135.939 175.592 136.321C161.58 139.962 146.704 138.699 133.547 132.75C133.008 132.503 132.468 132.252 131.939 131.991C132.893 127.21 134.028 121.592 135.359 115.265C135.843 112.972 136.35 110.585 136.881 108.105C139.614 95.4013 143.536 88.4836 146.775 84.7361L146.808 84.6989C147.423 83.9865 148.09 83.3175 148.802 82.6972C148.822 82.6746 148.844 82.6543 148.869 82.6366C149.031 82.497 149.193 82.3666 149.346 82.2409C151.297 80.6907 152.623 80.4068 152.623 80.4068L152.742 80.4487H152.809C153.845 80.8475 154.931 81.1089 156.039 81.2261H156.225H156.253C156.961 81.2922 157.672 81.3031 158.381 81.2587H158.424C160.393 81.1362 162.31 80.5961 164.043 79.6759V79.6759C166.075 80.3318 167.989 81.2947 169.715 82.5296C174.648 86.0629 184.584 99.0184 184.584 99.0184L180.573 102.198Z" fill="url(#paint5_linear_180337_23)"/>
<path d="M198.743 119.888C198.714 121.182 197.507 123.807 195.742 126.992C193.252 128.745 190.63 130.314 187.9 131.684C187.308 131.987 186.707 132.275 186.101 132.555C185.829 132.685 185.562 132.806 185.285 132.927C183.559 133.7 181.787 134.393 179.971 135.008L184.579 120.675L172.654 108.455L180.568 102.198L184.579 99.0277C184.579 99.0277 198.867 114.883 198.743 119.888Z" fill="url(#paint6_linear_180337_23)"/>
<defs>
<filter id="filter0_d_180337_23" x="39.5312" y="35.382" width="87.3142" height="80.9835" filterUnits="userSpaceOnUse" color-interpolation-filters="sRGB">
<feFlood flood-opacity="0" result="BackgroundImageFix"/>
<feColorMatrix in="SourceAlpha" type="matrix" values="0 0 0 0 0 0 0 0 0 0 0 0 0 0 0 0 0 0 127 0" result="hardAlpha"/>
<feOffset dy="4"/>
<feGaussianBlur stdDeviation="5"/>
<feColorMatrix type="matrix" values="0 0 0 0 0 0 0 0 0 0 0 0 0 0 0 0 0 0 0.15 0"/>
<feBlend mode="normal" in2="BackgroundImageFix" result="effect1_dropShadow_180337_23"/>
<feBlend mode="normal" in="SourceGraphic" in2="effect1_dropShadow_180337_23" result="shape"/>
</filter>
<linearGradient id="paint0_linear_180337_23" x1="159.865" y1="24.1951" x2="157.851" y2="143.175" gradientUnits="userSpaceOnUse">
<stop stop-color="white" stop-opacity="0"/>
<stop offset="1" stop-color="#64B5F6" stop-opacity="0.6"/>
</linearGradient>
<linearGradient id="paint1_linear_180337_23" x1="140.444" y1="80.0203" x2="137.035" y2="112.276" gradientUnits="userSpaceOnUse">
<stop stop-color="#42A5F5"/>
<stop offset="1" stop-color="#1565C0"/>
</linearGradient>
<linearGradient id="paint2_linear_180337_23" x1="99.1618" y1="113.962" x2="138.721" y2="119.334" gradientUnits="userSpaceOnUse">
<stop stop-color="#FFE082"/>
<stop offset="1" stop-color="#FFA726"/>
</linearGradient>
<linearGradient id="paint3_linear_180337_23" x1="8937.4" y1="2344.71" x2="8940.05" y2="2135.4" gradientUnits="userSpaceOnUse">
<stop stop-color="#FFE082"/>
<stop offset="1" stop-color="#FFA726"/>
</linearGradient>
<linearGradient id="paint4_linear_180337_23" x1="14199.2" y1="3745.14" x2="14948.5" y2="3745.14" gradientUnits="userSpaceOnUse">
<stop stop-color="#FFE082"/>
<stop offset="1" stop-color="#FFA726"/>
</linearGradient>
<linearGradient id="paint5_linear_180337_23" x1="40615.3" y1="13830.5" x2="46014.3" y2="19191.2" gradientUnits="userSpaceOnUse">
<stop stop-color="#42A5F5"/>
<stop offset="1" stop-color="#1565C0"/>
</linearGradient>
<linearGradient id="paint6_linear_180337_23" x1="21778.4" y1="11235.3" x2="21420.7" y2="8928.29" gradientUnits="userSpaceOnUse">
<stop stop-color="#FFE082"/>
<stop offset="1" stop-color="#FFA726"/>
</linearGradient>
</defs>
</svg>
