<svg width="300" height="154" viewBox="0 0 300 154" fill="none" xmlns="http://www.w3.org/2000/svg">
<path d="M213.556 82.6722C213.564 91.0687 211.751 99.374 208.235 107.056C204.719 114.738 199.576 121.627 193.137 127.282C191.345 128.856 189.462 130.331 187.496 131.698C184.973 133.453 182.317 135.022 179.551 136.394H179.522C178.932 136.692 178.333 136.976 177.729 137.251C177.453 137.381 177.183 137.503 176.902 137.624C175.153 138.397 173.358 139.091 171.518 139.706C170.068 140.172 168.58 140.638 167.077 141.02C158.406 143.243 149.343 143.654 140.495 142.226C139.446 142.059 138.412 141.868 137.382 141.649L136.512 141.458C133.886 140.866 131.303 140.11 128.779 139.194C127.313 138.662 125.876 138.08 124.468 137.447C123.922 137.2 123.376 136.948 122.84 136.687C122.472 136.51 122.11 136.329 121.747 136.147C111.913 131.169 103.629 123.761 97.7416 114.683C91.8545 105.604 88.5766 95.1798 88.2435 84.4783C87.9104 73.7768 90.5341 63.1823 95.8459 53.7796C101.158 44.3768 108.967 36.5038 118.473 30.9666C127.98 25.4294 138.843 22.4271 149.949 22.267C161.055 22.1069 172.006 24.7949 181.68 30.0556C191.354 35.3164 199.404 42.9608 205.005 52.2063C210.606 61.4517 213.557 71.9659 213.556 82.6722Z" fill="url(#paint0_linear_180337_24)"/>
<path d="M167.309 87.0419C171.301 91.0016 182.929 106.412 182.929 106.412L175.786 116.507L169.363 96.452L167.309 87.0419Z" fill="url(#paint1_linear_180337_24)"/>
<path d="M179.522 136.426C178.932 136.724 178.333 137.009 177.729 137.283C177.453 137.414 177.183 137.535 176.902 137.656C175.153 138.429 173.358 139.124 171.518 139.739C170.068 140.204 168.58 140.67 167.077 141.052C158.406 143.275 149.343 143.687 140.495 142.259C139.446 142.091 138.412 141.9 137.382 141.681C133.612 144.187 130.133 146.307 127.827 147.271L128.016 145.72L128.799 139.231L130.611 124.133L137.793 117.438L121.646 118.645C121.646 118.645 123.342 95.9581 129.963 91.2903C136.585 86.6225 143.53 82.4392 143.53 82.4392C144.359 82.9658 145.271 83.3577 146.232 83.5991C148.528 84.211 150.915 84.4457 153.293 84.2933C156.125 84.1675 158.957 81.6286 159.092 81.4982C159.092 81.4982 163.539 82.3507 167.309 87.0604C169.189 89.4848 170.539 92.252 171.277 95.1941C172.205 98.6367 173.853 106.677 175.728 116.39C176.955 122.642 178.246 129.574 179.522 136.426Z" fill="url(#paint2_linear_180337_24)"/>
<path d="M182.929 106.43L189.821 114.215L214.059 91.0248L214.977 86.2778L219.811 82.2296L217.66 88.4021V96.4426C217.66 96.4426 198.965 125.651 193.813 127.156C187.787 128.922 175.796 116.497 175.796 116.497L182.929 106.43Z" fill="url(#paint3_linear_180337_24)"/>
<path d="M157.768 117.075L163.389 130.119L170.653 127.109L165.327 114.345L157.768 117.075Z" fill="#7E57C2"/>
<path d="M165.598 125.502C164.694 126.22 163.346 126.052 161.673 126.136C159.427 126.193 157.272 127.007 155.584 128.437C153.336 130.258 147.053 135.024 140.77 139.375C139.63 140.162 138.489 140.94 137.387 141.704C133.617 144.211 130.138 146.33 127.832 147.295C127.226 147.584 126.572 147.769 125.899 147.84C122.67 147.919 121.979 141.397 121.781 136.193C121.718 134.465 121.704 132.886 121.67 131.745C121.535 127.179 121.67 118.701 121.67 118.701L137.817 117.49L136.106 128.269L135.807 130.175V130.189L140.64 128.465L140.79 128.414L157.947 122.269L159.131 120.299L159.885 122.162H159.958L167.304 121.23C167.304 121.23 167.43 124.053 165.598 125.502Z" fill="url(#paint4_linear_180337_24)"/>
<path d="M161.891 57.5164C161.47 56.4077 161.108 55.653 161.002 55.4294V55.3735C161.002 55.3735 160.629 56.2586 157.826 56.0443C155.023 55.83 154.095 54.4884 154.095 54.4884C154.095 54.4884 154.975 57.3953 151.635 58.6391C148.421 59.841 147.155 59.063 147.068 59.0071C147.237 59.1842 149.75 61.7743 148.083 63.8287C146.357 65.9576 142.476 65.5383 142.476 65.5383V65.5663C142.965 66.6324 143.512 67.6727 144.115 68.6828C144.434 69.2138 144.748 69.703 145.081 70.1595V70.1921C145.937 71.5342 147.093 72.6753 148.465 73.5323C147.862 76.9413 146.131 80.0709 143.53 82.4533C144.405 82.8933 145.307 83.2807 146.232 83.6132C148.034 84.2701 150.456 84.9223 152.616 84.7406C155.119 84.4826 157.432 83.333 159.102 81.5169L157.995 77.4221L157 73.7326C165.999 71.5198 163.524 61.8954 161.891 57.5164ZM156.497 73.8677L156.657 73.8304L156.913 73.7605C156.54 73.916 156.146 74.0195 155.743 74.068C155.951 74.0168 156.164 73.9608 156.386 73.8956L156.497 73.8677Z" fill="url(#paint5_linear_180337_24)"/>
<path d="M167.309 55.2524C163.597 58.5413 161.992 57.6142 161.891 57.5257V57.5164C161.47 56.4077 161.108 55.653 161.006 55.4294L160.982 55.3735C160.982 55.3735 160.605 56.2586 157.802 56.0443C154.999 55.83 154.076 54.4884 154.076 54.4884C154.076 54.4884 154.955 57.3953 151.616 58.6391C148.397 59.841 147.13 59.063 147.048 59.0071C147.217 59.1795 149.731 61.7696 148.063 63.824C146.338 65.9529 142.457 65.5383 142.457 65.5383V65.5616C142.945 66.6293 143.492 67.6711 144.095 68.6827C144.417 69.2107 144.74 69.703 145.062 70.1595V70.1921C145.062 70.1921 143.738 72.703 141.374 72.6518C139.011 72.6005 138.958 70.3225 138.958 70.3225C138.958 70.3225 137.285 73.2294 132.119 70.4297C126.952 67.6299 130.398 63.5724 130.398 63.5724C130.398 63.5724 126.735 60.8705 126.735 56.8223C126.735 52.7741 132.438 49.6948 132.438 49.6948C132.438 49.6948 130.398 44.9944 133.839 42.4043C137.281 39.8142 142.452 41.5704 142.452 41.5704C142.452 41.5704 142.351 35.5563 147.619 35.6541C152.887 35.752 154.08 38.8592 154.08 38.8592C154.08 38.8592 158.817 35.328 163.505 38.6542C168.193 41.9804 166.265 47.7802 166.265 47.7802C166.265 47.7802 171.18 51.8284 167.309 55.2524Z" fill="url(#paint6_linear_180337_24)"/>
<path opacity="0.15" d="M158.034 77.408C155.787 76.7232 151.79 74.1098 151.79 74.1098C153.367 74.2705 154.961 74.1887 156.512 73.8676L156.671 73.8303L156.981 73.7418H157.024L158.034 77.408Z" fill="black"/>
<path opacity="0.15" d="M139.973 103.505L137.793 117.48L136.082 128.26L132.1 131.451L140.765 128.418C140.765 128.418 138.518 122.232 139.973 103.505Z" fill="black"/>
<path opacity="0.15" d="M137.373 141.681C138.402 141.9 139.436 142.091 140.485 142.259C140.538 141.304 140.635 140.339 140.77 139.375L137.373 141.681Z" fill="black"/>
<g filter="url(#filter0_d_180337_24)">
<path d="M117.964 10.1598H100.44C98.0221 10.1598 96.0618 12.1653 96.0618 14.6391V32.5666C96.0618 35.0405 98.0221 37.046 100.44 37.046H117.964C120.382 37.046 122.343 35.0405 122.343 32.5666V14.6391C122.343 12.1653 120.382 10.1598 117.964 10.1598Z" fill="#56CCF2"/>
</g>
<g clip-path="url(#clip0_180337_24)">
<path d="M115.777 22.6631H113.113L115.183 20.531L114.283 19.5965L111.305 22.6631H110.028V21.347L113.005 18.2804L112.098 17.3525L110.028 19.4846V16.7405H108.75V19.4846L106.68 17.3525L105.773 18.2804L108.75 21.347V22.6631H107.472L104.495 19.5965L103.595 20.531L105.664 22.6631H103V23.9793H105.664L103.595 26.1114L104.495 27.0459L107.472 23.9793H108.75V25.2954L105.773 28.362L106.68 29.2899L108.75 27.1577V29.9019H110.028V27.1577L112.098 29.2899L113.005 28.362L110.028 25.2954V23.9793H111.305L114.283 27.0459L115.183 26.1114L113.113 23.9793H115.777V22.6631Z" fill="white"/>
</g>
<g filter="url(#filter1_d_180337_24)">
<path d="M229.035 77.941H211.511C209.093 77.941 207.133 79.9465 207.133 82.4204V100.348C207.133 102.822 209.093 104.827 211.511 104.827H229.035C231.453 104.827 233.414 102.822 233.414 100.348V82.4204C233.414 79.9465 231.453 77.941 229.035 77.941Z" fill="#F2C94C"/>
</g>
<path d="M226.298 89.1286C226.298 85.8382 223.743 83.2059 220.548 83.2059C217.354 83.2059 214.799 85.8382 214.799 89.1286C214.799 91.1686 215.821 93.0112 217.354 94.0641V95.7093C217.354 96.5648 217.865 97.2886 218.632 97.5519V97.6835C218.632 98.8022 219.462 99.6577 220.548 99.6577C221.634 99.6577 222.465 98.8022 222.465 97.6835V97.5519C223.232 97.2886 223.743 96.5648 223.743 95.7093V94.0641C225.276 93.0112 226.298 91.1686 226.298 89.1286ZM216.077 89.1286C216.077 86.5621 218.057 84.5221 220.548 84.5221C223.04 84.5221 225.02 86.5621 225.02 89.1286C225.02 91.4318 223.359 93.3402 221.187 93.6692V92.0241L222.273 90.9054C222.529 90.6421 222.529 90.2473 222.273 89.9841C222.018 89.7208 221.634 89.7208 221.379 89.9841L220.548 90.8395L219.718 89.9841C219.462 89.7208 219.079 89.7208 218.824 89.9841C218.568 90.2473 218.568 90.6421 218.824 90.9054L219.91 92.0241V93.6692C217.738 93.3402 216.077 91.4318 216.077 89.1286ZM220.548 98.3415C220.165 98.3415 219.91 98.0783 219.91 97.6835H221.187C221.187 98.0783 220.932 98.3415 220.548 98.3415ZM222.465 95.7093C222.465 96.1041 222.209 96.3673 221.826 96.3673H219.271C218.887 96.3673 218.632 96.1041 218.632 95.7093V94.7222C219.207 94.9196 219.846 95.0512 220.548 95.0512C221.251 95.0512 221.89 94.9196 222.465 94.7222V95.7093Z" fill="white"/>
<g filter="url(#filter2_d_180337_24)">
<path d="M88.4889 77.9409H70.965C68.5468 77.9409 66.5864 79.9464 66.5864 82.4203V100.348C66.5864 102.822 68.5468 104.827 70.965 104.827H88.4889C90.9071 104.827 92.8674 102.822 92.8674 100.348V82.4203C92.8674 79.9464 90.9071 77.9409 88.4889 77.9409Z" fill="#F58A8A"/>
</g>
<g clip-path="url(#clip1_180337_24)">
<path d="M83.835 88.4704H83.1961V87.1542C83.1961 85.338 81.7651 83.8639 80.0019 83.8639C78.2387 83.8639 76.8077 85.338 76.8077 87.1542V88.4704H76.1688C75.4661 88.4704 74.8911 89.0626 74.8911 89.7865V96.3672C74.8911 97.0911 75.4661 97.6834 76.1688 97.6834H83.835C84.5377 97.6834 85.1127 97.0911 85.1127 96.3672V89.7865C85.1127 89.0626 84.5377 88.4704 83.835 88.4704ZM80.0019 94.393C79.2992 94.393 78.7242 93.8008 78.7242 93.0769C78.7242 92.353 79.2992 91.7607 80.0019 91.7607C80.7046 91.7607 81.2796 92.353 81.2796 93.0769C81.2796 93.8008 80.7046 94.393 80.0019 94.393ZM81.9823 88.4704H78.0215V87.1542C78.0215 86.0289 78.9095 85.1142 80.0019 85.1142C81.0943 85.1142 81.9823 86.0289 81.9823 87.1542V88.4704Z" fill="white"/>
</g>
<g filter="url(#filter3_d_180337_24)">
<path d="M199.648 10.1598H182.124C179.706 10.1598 177.746 12.1653 177.746 14.6391V32.5666C177.746 35.0405 179.706 37.046 182.124 37.046H199.648C202.067 37.046 204.027 35.0405 204.027 32.5666V14.6391C204.027 12.1653 202.067 10.1598 199.648 10.1598Z" fill="#6FCF97"/>
</g>
<path d="M194.555 19.9626H184.121V26.6795H194.555V19.9626Z" fill="white"/>
<path d="M197.366 21.2993L195.064 22.2963V24.3742L197.366 25.3713H198.202V21.2993H197.366Z" fill="white"/>
<defs>
<filter id="filter0_d_180337_24" x="86.5992" y="0.697256" width="54.6686" height="55.2738" filterUnits="userSpaceOnUse" color-interpolation-filters="sRGB">
<feFlood flood-opacity="0" result="BackgroundImageFix"/>
<feColorMatrix in="SourceAlpha" type="matrix" values="0 0 0 0 0 0 0 0 0 0 0 0 0 0 0 0 0 0 127 0" result="hardAlpha"/>
<feOffset dx="4.73127" dy="4.73127"/>
<feGaussianBlur stdDeviation="7.0969"/>
<feColorMatrix type="matrix" values="0 0 0 0 0 0 0 0 0 0 0 0 0 0 0 0 0 0 0.15 0"/>
<feBlend mode="normal" in2="BackgroundImageFix" result="effect1_dropShadow_180337_24"/>
<feBlend mode="normal" in="SourceGraphic" in2="effect1_dropShadow_180337_24" result="shape"/>
</filter>
<filter id="filter1_d_180337_24" x="197.67" y="68.4785" width="54.6686" height="55.2738" filterUnits="userSpaceOnUse" color-interpolation-filters="sRGB">
<feFlood flood-opacity="0" result="BackgroundImageFix"/>
<feColorMatrix in="SourceAlpha" type="matrix" values="0 0 0 0 0 0 0 0 0 0 0 0 0 0 0 0 0 0 127 0" result="hardAlpha"/>
<feOffset dx="4.73127" dy="4.73127"/>
<feGaussianBlur stdDeviation="7.0969"/>
<feColorMatrix type="matrix" values="0 0 0 0 0 0 0 0 0 0 0 0 0 0 0 0 0 0 0.15 0"/>
<feBlend mode="normal" in2="BackgroundImageFix" result="effect1_dropShadow_180337_24"/>
<feBlend mode="normal" in="SourceGraphic" in2="effect1_dropShadow_180337_24" result="shape"/>
</filter>
<filter id="filter2_d_180337_24" x="57.1239" y="68.4784" width="54.6686" height="55.2738" filterUnits="userSpaceOnUse" color-interpolation-filters="sRGB">
<feFlood flood-opacity="0" result="BackgroundImageFix"/>
<feColorMatrix in="SourceAlpha" type="matrix" values="0 0 0 0 0 0 0 0 0 0 0 0 0 0 0 0 0 0 127 0" result="hardAlpha"/>
<feOffset dx="4.73127" dy="4.73127"/>
<feGaussianBlur stdDeviation="7.0969"/>
<feColorMatrix type="matrix" values="0 0 0 0 0 0 0 0 0 0 0 0 0 0 0 0 0 0 0.15 0"/>
<feBlend mode="normal" in2="BackgroundImageFix" result="effect1_dropShadow_180337_24"/>
<feBlend mode="normal" in="SourceGraphic" in2="effect1_dropShadow_180337_24" result="shape"/>
</filter>
<filter id="filter3_d_180337_24" x="168.283" y="0.697256" width="54.6686" height="55.2738" filterUnits="userSpaceOnUse" color-interpolation-filters="sRGB">
<feFlood flood-opacity="0" result="BackgroundImageFix"/>
<feColorMatrix in="SourceAlpha" type="matrix" values="0 0 0 0 0 0 0 0 0 0 0 0 0 0 0 0 0 0 127 0" result="hardAlpha"/>
<feOffset dx="4.73127" dy="4.73127"/>
<feGaussianBlur stdDeviation="7.0969"/>
<feColorMatrix type="matrix" values="0 0 0 0 0 0 0 0 0 0 0 0 0 0 0 0 0 0 0.15 0"/>
<feBlend mode="normal" in2="BackgroundImageFix" result="effect1_dropShadow_180337_24"/>
<feBlend mode="normal" in="SourceGraphic" in2="effect1_dropShadow_180337_24" result="shape"/>
</filter>
<linearGradient id="paint0_linear_180337_24" x1="151.143" y1="28.8197" x2="149.152" y2="147.878" gradientUnits="userSpaceOnUse">
<stop stop-color="white" stop-opacity="0"/>
<stop offset="1" stop-color="#64B5F6" stop-opacity="0.6"/>
</linearGradient>
<linearGradient id="paint1_linear_180337_24" x1="162.577" y1="83.0402" x2="178.913" y2="112.822" gradientUnits="userSpaceOnUse">
<stop stop-color="#E57373"/>
<stop offset="1" stop-color="#AD1457"/>
</linearGradient>
<linearGradient id="paint2_linear_180337_24" x1="26547.9" y1="36344.2" x2="24847.4" y2="45051.4" gradientUnits="userSpaceOnUse">
<stop stop-color="#E57373"/>
<stop offset="1" stop-color="#AD1457"/>
</linearGradient>
<linearGradient id="paint3_linear_180337_24" x1="226.369" y1="93.8059" x2="180.423" y2="121.421" gradientUnits="userSpaceOnUse">
<stop stop-color="#FFF8E1"/>
<stop offset="1" stop-color="#FFCC80"/>
</linearGradient>
<linearGradient id="paint4_linear_180337_24" x1="20434.8" y1="20366.2" x2="17966.7" y2="18639.7" gradientUnits="userSpaceOnUse">
<stop stop-color="#FFF8E1"/>
<stop offset="1" stop-color="#FFCC80"/>
</linearGradient>
<linearGradient id="paint5_linear_180337_24" x1="166.622" y1="62.2604" x2="141.375" y2="73.0477" gradientUnits="userSpaceOnUse">
<stop stop-color="#FFF8E1"/>
<stop offset="1" stop-color="#FFCC80"/>
</linearGradient>
<linearGradient id="paint6_linear_180337_24" x1="160.765" y1="35.4771" x2="132.291" y2="75.3915" gradientUnits="userSpaceOnUse">
<stop stop-color="#FFB74D"/>
<stop offset="1" stop-color="#F4511E"/>
</linearGradient>
<clipPath id="clip0_180337_24">
<rect width="15.3323" height="15.7937" fill="white" transform="translate(101.723 15.4244)"/>
</clipPath>
<clipPath id="clip1_180337_24">
<rect width="15.3323" height="15.7937" fill="white" transform="translate(72.3359 83.2058)"/>
</clipPath>
</defs>
</svg>
